<?xml version="1.0" encoding="UTF-8" standalone="no"?>
<!-- Created with Inkscape (http://www.inkscape.org/) -->

<svg
   xmlns:dc="http://purl.org/dc/elements/1.1/"
   xmlns:cc="http://creativecommons.org/ns#"
   xmlns:rdf="http://www.w3.org/1999/02/22-rdf-syntax-ns#"
   xmlns:svg="http://www.w3.org/2000/svg"
   xmlns="http://www.w3.org/2000/svg"
   xmlns:sodipodi="http://sodipodi.sourceforge.net/DTD/sodipodi-0.dtd"
   xmlns:inkscape="http://www.inkscape.org/namespaces/inkscape"
   width="485.46674"
   height="89.676529"
   viewBox="0 0 485.46674 89.676529"
   id="svg4161"
   version="1.1"
   inkscape:version="0.92.3 (5aff6ba, 2018-11-25)"
   sodipodi:docname="pepatac_logo_white.svg">
  <defs
     id="defs4163">
    <inkscape:path-effect
       effect="skeletal"
       id="path-effect5735"
       is_visible="true"
       pattern="m 0,-142.63784 c 0,-2.76 2.24,-5 5,-5 2.76,0 5,2.24 5,5 0,2.76 -2.24,5 -5,5 -2.76,0 -5,-2.24 -5,-5 z"
       copytype="single_stretched"
       prop_scale="1"
       scale_y_rel="false"
       spacing="0"
       normal_offset="0"
       tang_offset="0"
       prop_units="false"
       vertical_pattern="false"
       fuse_tolerance="0" />
    <inkscape:path-effect
       effect="skeletal"
       id="path-effect5731"
       is_visible="true"
       pattern="m 0,-142.63784 c 0,-2.76 2.24,-5 5,-5 2.76,0 5,2.24 5,5 0,2.76 -2.24,5 -5,5 -2.76,0 -5,-2.24 -5,-5 z"
       copytype="single_stretched"
       prop_scale="1"
       scale_y_rel="false"
       spacing="0"
       normal_offset="0"
       tang_offset="0"
       prop_units="false"
       vertical_pattern="false"
       fuse_tolerance="0" />
    <inkscape:path-effect
       effect="spiro"
       id="path-effect5729"
       is_visible="true" />
    <inkscape:path-effect
       effect="skeletal"
       id="path-effect5721"
       is_visible="true"
       pattern="m 0,-142.63784 c 0,-2.76 2.24,-5 5,-5 2.76,0 5,2.24 5,5 0,2.76 -2.24,5 -5,5 -2.76,0 -5,-2.24 -5,-5 z"
       copytype="single_stretched"
       prop_scale="1"
       scale_y_rel="false"
       spacing="0"
       normal_offset="0"
       tang_offset="0"
       prop_units="false"
       vertical_pattern="false"
       fuse_tolerance="0" />
    <inkscape:path-effect
       effect="powerstroke"
       id="path-effect5717"
       is_visible="true"
       offset_points="0,0.5"
       sort_points="true"
       interpolator_type="Linear"
       interpolator_beta="0.2"
       start_linecap_type="zerowidth"
       linejoin_type="round"
       miter_limit="4"
       end_linecap_type="zerowidth"
       cusp_linecap_type="round" />
    <inkscape:path-effect
       effect="spiro"
       id="path-effect5713"
       is_visible="true" />
    <linearGradient
       id="linearGradient3972">
      <stop
         style="stop-color:#faf0e6;stop-opacity:1;"
         offset="0"
         id="stop3974" />
      <stop
         id="stop3980"
         offset="0.5"
         style="stop-color:#ffffff;stop-opacity:1;" />
      <stop
         style="stop-color:#f4cda5;stop-opacity:1;"
         offset="1"
         id="stop3976" />
    </linearGradient>
    <linearGradient
       id="linearGradient3892">
      <stop
         style="stop-color:#e9e8e8;stop-opacity:0.42028984;"
         offset="0"
         id="stop3894" />
      <stop
         style="stop-color:#fff8f7;stop-opacity:0.55072463;"
         offset="1"
         id="stop3896" />
    </linearGradient>
  </defs>
  <sodipodi:namedview
     id="base"
     pagecolor="#000000"
     bordercolor="#666666"
     borderopacity="1.0"
     inkscape:pageopacity="0"
     inkscape:pageshadow="2"
     inkscape:zoom="0.69957756"
     inkscape:cx="82.138969"
     inkscape:cy="473.87199"
     inkscape:document-units="px"
     inkscape:current-layer="layer1"
     showgrid="false"
     units="px"
     fit-margin-top="0"
     fit-margin-left="0"
     fit-margin-right="0"
     fit-margin-bottom="0"
     inkscape:pagecheckerboard="true"
     inkscape:window-width="1920"
     inkscape:window-height="1124"
     inkscape:window-x="0"
     inkscape:window-y="0"
     inkscape:window-maximized="1" />
  <metadata
     id="metadata4166">
    <rdf:RDF>
      <cc:Work
         rdf:about="">
        <dc:format>image/svg+xml</dc:format>
        <dc:type
           rdf:resource="http://purl.org/dc/dcmitype/StillImage" />
        <dc:title></dc:title>
      </cc:Work>
    </rdf:RDF>
  </metadata>
  <g
     inkscape:label="Layer 1"
     inkscape:groupmode="layer"
     id="layer1"
     transform="translate(-746.43501,-904.60464)">
    <g
       style="color:#000000;font-style:normal;font-variant:normal;font-weight:normal;font-stretch:normal;font-size:128.17562866px;line-height:100%;font-family:'Groovy Fast';-inkscape-font-specification:'Groovy Fast';text-indent:0;text-align:center;text-decoration:none;text-decoration-line:none;text-decoration-style:solid;text-decoration-color:#000000;letter-spacing:0px;word-spacing:0px;text-transform:none;direction:ltr;block-progression:tb;writing-mode:lr-tb;baseline-shift:baseline;text-anchor:middle;white-space:normal;clip-rule:nonzero;display:inline;overflow:visible;visibility:visible;opacity:1;isolation:auto;mix-blend-mode:normal;color-interpolation:sRGB;color-interpolation-filters:linearRGB;solid-color:#000000;solid-opacity:1;fill:#ffffff;fill-opacity:1;fill-rule:nonzero;stroke:#aa8800;stroke-width:3.54993629;stroke-linecap:butt;stroke-linejoin:miter;stroke-miterlimit:4;stroke-dasharray:none;stroke-dashoffset:0;stroke-opacity:1;marker:none;color-rendering:auto;image-rendering:auto;shape-rendering:auto;text-rendering:auto;enable-background:accumulate"
       id="text4650"
       transform="translate(-333.51412,507.52165)">
      <path
         inkscape:connector-curvature="0"
         d="m 1081.7237,398.92365 45.3746,0 q 20.3404,0 20.3404,18.77573 l 0,18.77572 q 0,20.34037 -20.3404,20.34037 l -25.0343,0 0.063,28.16359 -20.4029,0 0,-86.05541 z m 35.9868,40.68074 q 7.8232,0 7.8232,-7.82322 l 0,-7.82322 q 0,-7.82322 -7.8232,-7.82322 l -15.6465,0 0,23.46966 15.6465,0 z"
         style="stroke-width:3.54993629"
         id="path4189" />
      <path
         inkscape:connector-curvature="0"
         d="m 1153.8224,398.92365 54.7,0 0.063,17.27367 -35.9242,0 0,20.27778 28.101,0.0626 0,15.52127 -28.1636,0.0626 0,15.70903 35.9868,0 0,17.14849 -54.7,0 -0.063,-86.05541 z"
         style="stroke-width:3.54993629"
         id="path4191" />
      <path
         inkscape:connector-curvature="0"
         d="m 1214.9062,398.92365 45.3746,0 q 20.3404,0 20.3404,18.77573 l 0,18.77572 q 0,20.34037 -20.3404,20.34037 l -25.0343,0 0.063,28.16359 -20.4029,0 0,-86.05541 z m 35.9868,40.68074 q 7.8232,0 7.8232,-7.82322 l 0,-7.82322 q 0,-7.82322 -7.8232,-7.82322 l -15.6465,0 0,23.46966 15.6465,0 z"
         style="stroke-width:3.54993629"
         id="path4193" />
      <path
         inkscape:connector-curvature="0"
         d="m 1332.3796,436.60028 0,-15.77162 q 0,-7.82321 -7.8232,-7.82321 l -9.3253,0 q -7.8232,0 -7.8232,7.82321 l -0.063,15.77162 25.0343,0 z m -24.9717,48.37878 -20.3404,0 -0.063,-68.84433 q 0.063,-17.21108 20.403,-17.21108 l 23.5948,0 q 20.2152,0 20.2778,18.77573 l -0.063,67.27968 -18.7757,0 -0.063,-35.9868 -24.9717,0 0,35.9868 z"
         style="stroke-width:3.54993629"
         id="path4195" />
      <path
         inkscape:connector-curvature="0"
         d="m 1388.2687,419.20144 -23.5323,0.0626 0,-20.34037 65.7151,0 0,20.34037 -21.8424,0 0,65.71504 -20.3404,-0.0626 0,-65.71504 z"
         style="stroke-width:3.54993629"
         id="path4197" />
      <path
         inkscape:connector-curvature="0"
         d="m 1482.3351,436.60028 0,-15.77162 q 0,-7.82321 -7.8232,-7.82321 l -9.3253,0 q -7.8232,0 -7.8232,7.82321 l -0.063,15.77162 25.0343,0 z m -24.9717,48.37878 -20.3404,0 -0.063,-68.84433 q 0.063,-17.21108 20.403,-17.21108 l 23.5948,0 q 20.2152,0 20.2778,18.77573 l -0.063,67.27968 -18.7757,0 -0.063,-35.9868 -24.9717,0 0,35.9868 z"
         style="stroke-width:3.54993629"
         id="path4199" />
      <path
         inkscape:connector-curvature="0"
         d="m 1507.3694,417.69938 0,-0.12517 q 0,-18.65056 20.3403,-18.65056 l 35.8617,-0.0626 0.063,17.27367 -28.101,0 q -7.8233,0 -7.8858,7.82322 l 0,34.42217 q 0,9.38786 9.3878,9.38786 l 26.599,0 0,17.21108 -35.9243,0 q -20.3403,0 -20.4029,-20.34037 l 0.063,-46.93931 z"
         style="stroke-width:3.54993629"
         id="path4201" />
    </g>
  </g>
</svg>
